<svg xmlns="http://www.w3.org/2000/svg" xmlns:xlink="http://www.w3.org/1999/xlink" preserveAspectRatio="xMidYMid" width="512.68" height="741.941" viewBox="0 0 512.68 741.941">
  <defs>
    <style>
      .cls-1 {
        fill: #fff;
      }

      .cls-1, .cls-2, .cls-3, .cls-4, .cls-5, .cls-6, .cls-7, .cls-8 {
        fill-rule: evenodd;
      }

      .cls-2 {
        fill: #dbdbdb;
      }

      .cls-3 {
        fill: #494949;
        stroke: #fff;
        stroke-linejoin: round;
        stroke-opacity: 0.48;
        stroke-width: 1px;
        filter: url(#inner-shadow-1);
      }

      .cls-4 {
        fill: #848484;
      }

      .cls-5 {
        fill: #efefef;
        filter: url(#inner-shadow-3);
      }

      .cls-6 {
        fill: #cbcbcb;
      }

      .cls-7 {
        fill: #b4b4b4;
      }

      .cls-8 {
        fill: #f6f6f6;
      }
    </style>

    <filter id="inner-shadow-1" filterUnits="userSpaceOnUse">
      <feOffset dy="3" in="SourceAlpha"/>
      <feGaussianBlur result="innerShadowBlur"/>
      <feFlood flood-opacity="0.5"/>
      <feComposite operator="out" in2="innerShadowBlur"/>
      <feComposite operator="in" in2="SourceAlpha"/>
      <feBlend in2="SourceGraphic" result="innerShadow"/>
    </filter>
    <filter id="inner-shadow-3" filterUnits="userSpaceOnUse">
      <feOffset dy="2" in="SourceAlpha"/>
      <feGaussianBlur result="innerShadowBlur"/>
      <feFlood flood-opacity="0.1"/>
      <feComposite operator="out" in2="innerShadowBlur"/>
      <feComposite operator="in" in2="SourceAlpha"/>
      <feBlend in2="SourceGraphic" result="innerShadow"/>
    </filter>
  </defs>
  <g>
    <g>
      <path d="M74.847,720.949 L74.326,715.856 L84.509,714.816 L85.029,719.909 L74.847,720.949 Z" class="cls-1"/>
      <path d="M74.847,720.949 L74.326,715.856 L76.023,715.682 L76.544,720.776 L74.847,720.949 Z" class="cls-2"/>
      <path d="M75.020,722.647 L74.153,714.158 L32.574,718.405 C32.574,718.405 29.749,718.956 29.855,716.968 C29.962,714.980 33.690,712.538 33.144,707.196 C32.599,701.854 24.133,691.820 22.162,692.021 C20.192,692.222 10.283,693.234 10.283,693.234 C10.283,693.234 7.152,693.762 4.690,697.237 C2.402,700.466 -0.482,705.357 0.051,710.577 C0.621,716.152 5.907,723.828 16.211,726.082 C26.515,728.335 31.311,727.112 35.987,726.634 C40.663,726.157 75.020,722.647 75.020,722.647 Z" class="cls-1"/>
      <g style="fill: #494949; filter: url(#inner-shadow-1)">
        <path d="M17.840,713.649 L17.493,710.254 C17.397,709.316 18.079,708.478 19.016,708.382 C19.953,708.287 20.791,708.969 20.887,709.907 L21.234,713.302 C21.329,714.240 20.647,715.078 19.710,715.173 C18.773,715.269 17.935,714.587 17.840,713.649 Z" id="path-1" style="stroke: inherit; filter: none; fill: inherit" class="cls-3"/>
      </g>
      <use xlink:href="#path-1" style="stroke: #fff; filter: none; fill: none"/>
    </g>
    <g>
      <path d="M106.440,652.531 L105.920,647.438 L116.102,646.398 L116.622,651.491 L106.440,652.531 Z" class="cls-1"/>
      <path d="M106.440,652.531 L105.920,647.438 L107.617,647.265 L108.137,652.358 L106.440,652.531 Z" class="cls-2"/>
      <path d="M106.613,654.229 L105.746,645.740 L61.622,650.248 C61.622,650.248 60.016,649.933 60.600,648.637 C61.184,647.340 64.428,644.147 64.062,640.563 C63.696,636.980 58.452,629.986 45.964,631.261 C33.477,632.537 30.739,641.691 31.056,644.793 C31.373,647.895 35.472,661.497 65.883,658.390 C96.295,655.283 106.613,654.229 106.613,654.229 Z" class="cls-1"/>
      <path d="M44.441,633.133 L44.180,630.586 L47.575,630.239 L47.835,632.786 L44.441,633.133 Z" class="cls-4"/>
      <g style="fill: #494949; filter: url(#inner-shadow-1)">
        <path d="M44.648,648.139 C44.433,646.029 45.968,644.144 48.076,643.929 L54.016,643.322 C56.125,643.107 58.009,644.642 58.225,646.752 C58.441,648.862 56.906,650.747 54.797,650.962 L48.857,651.569 C46.748,651.785 44.864,650.249 44.648,648.139 Z" id="path-2" style="stroke: inherit; filter: none; fill: inherit" class="cls-3"/>
      </g>
      <use xlink:href="#path-2" style="stroke: #fff; filter: none; fill: none"/>
    </g>
    <path d="M184.273,382.105 L183.753,377.011 L185.933,364.780 L193.570,364.000 L198.178,375.538 L198.698,380.631 L184.273,382.105 Z" class="cls-1"/>
    <path d="M494.826,69.967 C482.274,92.408 466.651,120.332 504.490,225.629 C519.100,266.285 513.996,298.689 490.486,314.530 C469.654,328.566 438.777,325.559 418.665,307.536 C407.700,297.711 401.025,284.421 399.361,269.103 C397.422,251.394 402.109,231.651 413.243,210.401 C451.211,137.937 449.399,107.094 441.195,93.980 C434.690,83.584 423.874,83.791 423.417,83.806 L423.293,83.806 C422.813,83.787 374.876,82.062 343.809,93.897 C335.134,97.202 326.804,102.431 318.748,107.488 C297.744,120.672 276.025,134.306 249.198,111.580 C217.671,84.873 161.486,49.788 135.917,62.598 C125.138,67.997 120.330,81.628 121.628,103.112 C122.908,124.326 134.050,134.996 144.822,145.312 C161.080,160.881 176.437,175.586 154.145,222.412 C139.196,253.811 121.138,260.003 100.229,267.173 C87.966,271.378 74.068,276.143 58.921,286.784 C51.635,291.903 36.519,306.895 53.486,335.474 C61.730,349.363 75.688,362.248 90.823,369.943 C107.364,378.353 123.170,379.669 135.329,373.650 C162.403,360.247 160.524,330.306 158.707,301.352 C157.605,283.798 156.565,267.217 162.730,256.341 C170.654,242.360 186.718,232.698 206.803,229.831 C227.756,226.841 250.493,231.463 270.828,242.844 C289.867,253.501 298.591,270.676 293.058,286.596 C290.061,295.215 283.062,302.340 273.351,306.658 C262.664,311.410 249.075,312.644 234.056,310.227 C214.792,307.128 201.509,309.004 194.577,315.806 C185.873,324.346 187.993,339.383 189.692,351.465 C189.998,353.640 190.118,355.712 190.329,357.625 C190.404,358.323 191.111,365.280 191.111,365.280 L187.716,365.624 C187.715,365.624 187.013,358.692 186.937,357.998 C186.732,356.137 186.616,354.090 186.313,351.941 C184.505,339.098 182.254,323.116 192.188,313.369 C200.046,305.660 213.918,303.530 234.598,306.858 C257.131,310.484 282.950,305.277 289.835,285.474 C294.799,271.193 286.685,255.631 269.162,245.823 C249.476,234.804 227.501,230.325 207.285,233.210 C188.255,235.926 173.097,244.971 165.698,258.025 C160.033,268.017 161.043,284.105 162.112,301.138 C163.911,329.806 165.950,362.299 136.842,376.709 C123.695,383.218 106.802,381.896 89.277,372.986 C73.590,365.010 59.113,351.639 50.552,337.217 C37.771,315.685 40.167,295.789 56.961,283.991 C72.504,273.072 86.645,268.223 99.122,263.944 C120.135,256.739 136.733,251.047 151.065,220.944 C172.297,176.346 158.471,163.108 142.463,147.777 C131.740,137.509 119.586,125.881 118.222,103.317 C116.834,80.341 122.274,65.615 134.389,59.545 C163.548,44.938 223.681,85.492 251.403,108.976 C276.326,130.087 296.051,117.706 316.934,104.596 C325.130,99.452 333.606,94.132 342.594,90.707 C373.817,78.814 421.407,80.324 423.368,80.393 C424.512,80.368 436.669,80.387 444.046,92.105 C449.551,100.850 450.843,113.762 447.882,130.485 C444.129,151.687 433.491,179.108 416.265,211.985 C387.681,266.537 410.013,295.201 420.941,304.994 C439.925,322.006 469.003,324.889 488.580,311.699 C510.689,296.802 515.320,265.851 501.279,226.783 C484.286,179.495 476.489,143.325 477.443,116.207 C478.275,92.566 485.487,79.674 491.849,68.300 C496.049,60.792 499.676,54.308 500.801,45.890 C503.394,26.518 500.551,13.647 492.358,7.634 C475.775,-4.537 440.454,12.011 417.081,22.961 C410.989,25.814 405.729,28.279 401.800,29.756 C377.291,38.973 359.310,38.316 358.629,38.355 L350.218,39.216 L349.871,35.821 L358.356,34.954 C358.591,34.938 376.620,35.579 400.599,26.562 C404.403,25.131 409.607,22.693 415.634,19.870 C439.737,8.578 476.161,-8.487 494.376,4.882 C500.295,9.226 503.782,16.481 504.809,26.541 C505.392,32.246 505.185,38.851 504.183,46.343 C502.971,55.407 499.014,62.479 494.826,69.967 ZM234.495,727.019 C259.945,738.944 281.759,741.616 299.332,734.960 C316.562,728.436 330.278,712.937 341.264,687.581 C348.919,669.915 374.799,671.324 397.632,672.569 C414.250,673.474 429.948,674.329 434.214,667.526 C436.792,663.415 435.209,656.093 429.510,645.766 C426.689,640.654 422.585,633.222 417.413,624.677 C414.404,624.583 411.326,624.320 408.043,624.028 C399.865,623.301 390.596,622.477 377.779,623.786 L299.248,631.809 C289.727,632.782 278.433,628.825 266.477,624.635 C246.011,617.464 222.815,609.335 201.203,622.782 C161.071,647.750 116.078,650.649 115.655,650.671 L115.473,647.263 C115.887,647.241 160.041,644.371 199.401,619.883 C222.400,605.574 246.416,613.989 267.604,621.414 C279.192,625.474 290.136,629.309 298.901,628.414 L377.432,620.391 C390.573,619.048 400.427,619.924 408.345,620.628 C410.772,620.844 413.054,621.040 415.267,621.167 C396.842,591.372 366.503,550.667 332.119,545.092 C315.943,542.470 300.254,548.050 285.485,561.680 C276.834,569.664 266.378,570.651 253.520,564.696 C242.666,559.669 231.867,550.621 221.424,541.871 C212.622,534.496 204.309,527.530 197.487,524.464 C184.589,518.667 176.356,510.905 173.015,501.393 C167.251,484.980 176.616,466.666 184.141,451.949 C188.331,443.756 192.271,435.348 191.850,431.219 L186.744,381.247 L190.139,380.900 L195.244,430.872 C195.768,436.005 191.798,444.472 187.179,453.504 C179.951,467.640 170.955,485.235 176.234,500.262 C179.295,508.977 186.704,515.875 198.885,521.350 C206.138,524.610 214.627,531.723 223.615,539.254 C243.548,555.957 266.142,574.888 283.172,559.171 C298.750,544.794 315.402,538.923 332.664,541.723 C369.137,547.636 400.745,590.876 419.344,621.297 C428.798,621.324 437.421,619.073 450.186,608.939 C460.084,601.081 455.127,592.842 445.787,580.208 C439.770,572.069 433.549,563.651 436.330,555.703 C438.707,548.906 447.063,543.807 462.624,539.657 C471.105,537.395 476.035,532.103 476.879,524.352 C478.282,511.479 468.308,495.249 454.647,488.173 C443.000,482.140 430.889,483.856 420.546,493.005 C391.270,518.898 366.284,530.663 344.160,528.970 C318.786,527.030 302.650,507.644 289.685,492.066 C281.344,482.046 274.141,473.393 267.171,472.946 C240.320,471.229 225.240,467.439 215.119,459.868 C204.369,451.825 198.659,439.192 196.451,417.579 L192.288,376.831 L195.701,376.483 L199.845,417.232 C201.946,437.800 207.253,449.721 217.162,457.134 C226.706,464.274 241.257,467.868 267.388,469.540 C275.824,470.080 283.462,479.257 292.306,489.883 C304.860,504.965 320.484,523.737 344.420,525.567 C365.576,527.185 389.737,515.697 418.285,490.447 C429.759,480.300 443.229,478.416 456.215,485.142 C469.100,491.816 478.944,506.130 480.267,519.061 C480.464,520.989 480.471,522.885 480.271,524.721 C479.276,533.861 473.320,540.337 463.503,542.955 C449.329,546.735 441.494,551.274 439.550,556.832 C437.365,563.077 442.788,570.413 448.530,578.179 C456.485,588.939 465.505,601.136 452.307,611.613 C439.663,621.651 430.619,624.384 421.397,624.688 C426.092,632.523 429.854,639.328 432.496,644.116 C436.189,650.806 438.258,656.375 438.721,660.910 C439.066,664.278 438.524,667.075 437.103,669.340 C431.769,677.846 415.864,676.980 397.447,675.976 C375.725,674.793 351.104,673.452 344.395,688.938 C333.023,715.186 318.677,731.284 300.540,738.153 C282.073,745.147 259.365,742.441 233.048,730.111 C192.129,710.939 153.076,712.109 123.609,715.120 L84.477,719.118 L84.130,715.722 L123.262,711.724 C153.166,708.669 192.818,707.493 234.495,727.019 Z" class="cls-1"/>
    <g>
      <path d="M310.176,632.574 L309.569,626.632 C309.473,625.695 310.155,624.857 311.092,624.761 L367.096,619.039 C368.033,618.943 368.870,619.626 368.966,620.564 L369.573,626.506 C369.669,627.444 368.987,628.282 368.050,628.378 L312.046,634.099 C311.109,634.195 310.271,633.512 310.176,632.574 Z" class="cls-1"/>
      <path d="M327.146,630.841 L326.539,624.898 C326.444,623.961 327.126,623.123 328.063,623.027 L350.125,620.773 C351.062,620.677 351.900,621.360 351.995,622.298 L352.602,628.240 C352.698,629.178 352.016,630.015 351.079,630.111 L329.017,632.365 C328.080,632.461 327.242,631.778 327.146,630.841 Z" class="cls-5"/>
      <path d="M360.153,626.611 L359.719,622.366 L360.568,622.280 L361.001,626.524 L360.153,626.611 Z" class="cls-6"/>
      <path d="M320.098,628.987 L318.401,629.161 L318.574,630.859 L317.726,630.945 L317.552,629.247 L315.855,629.421 L315.768,628.572 L317.466,628.399 L317.292,626.701 L318.141,626.614 L318.314,628.312 L320.011,628.139 L320.098,628.987 Z" class="cls-6"/>
    </g>
    <g>
      <path d="M339.019,42.061 L338.325,35.270 L350.205,34.057 L350.899,40.848 L339.019,42.061 Z" class="cls-1"/>
      <path d="M339.019,42.061 L338.325,35.270 L340.022,35.097 L340.716,41.889 L339.019,42.061 Z" class="cls-2"/>
      <path d="M295.744,46.483 L295.657,45.634 L290.566,46.154 C289.160,46.298 287.904,45.274 287.760,43.867 C287.616,42.461 288.639,41.205 290.045,41.061 L295.137,40.541 L295.050,39.692 L315.415,37.611 L316.109,44.402 L295.744,46.483 Z" class="cls-7"/>
      <path d="M309.320,45.096 L308.626,38.305 L309.475,38.218 L310.169,45.009 L309.320,45.096 ZM301.838,38.998 L302.687,38.911 L303.381,45.702 L302.532,45.790 L301.838,38.998 ZM295.050,39.692 L295.898,39.605 L296.592,46.396 L295.744,46.483 L295.050,39.692 Z" class="cls-8"/>
      <path d="M315.433,46.187 L314.393,36.000 L338.152,33.573 L339.193,43.759 L315.433,46.187 Z" class="cls-1"/>
    </g>
  </g>
</svg>
