<svg xmlns="http://www.w3.org/2000/svg" xmlns:xlink="http://www.w3.org/1999/xlink" preserveAspectRatio="xMidYMid" width="857.12" height="883.719" viewBox="0 0 857.12 883.719">
  <defs>
    <style>
      .cls-1 {
        opacity: 0.6;
      }

      .cls-2 {
        fill: #717171;
        filter: url(#drop-shadow-1);
      }

      .cls-10, .cls-2, .cls-3, .cls-4, .cls-5, .cls-6, .cls-7, .cls-8, .cls-9 {
        fill-rule: evenodd;
      }

      .cls-3 {
        fill: #977d9f;
      }

      .cls-4 {
        fill: #000;
        opacity: 0.5;
      }

      .cls-5 {
        fill: #d0cdbd;
      }

      .cls-6 {
        fill: #edece8;
      }

      .cls-7 {
        fill: #f1efe8;
      }

      .cls-8 {
        fill: #7d7d7d;
        filter: url(#drop-shadow-2);
      }

      .cls-9 {
        fill: #636363;
      }

      .cls-10 {
        fill: #cfccbe;
      }
    </style>

    <filter id="drop-shadow-1" filterUnits="userSpaceOnUse">
      <feOffset dx="-5.472" dy="15.035" in="SourceAlpha"/>
      <feGaussianBlur result="dropBlur"/>
      <feFlood flood-opacity="0.05"/>
      <feComposite operator="in" in2="dropBlur" result="dropShadowComp"/>
      <feComposite in="SourceGraphic" result="shadowed"/>
    </filter>
    <filter id="drop-shadow-2" filterUnits="userSpaceOnUse">
      <feOffset dx="2" in="SourceAlpha"/>
      <feGaussianBlur result="dropBlur"/>
      <feFlood flood-opacity="0.1"/>
      <feComposite operator="in" in2="dropBlur" result="dropShadowComp"/>
      <feComposite in="SourceGraphic" result="shadowed"/>
    </filter>
  </defs>
  <g class="cls-1">
    <path d="M853.653,369.247 L645.558,607.055 L645.558,607.055 C646.389,607.782 646.473,609.046 645.746,609.877 L627.966,630.196 C627.238,631.027 625.975,631.111 625.144,630.384 L625.144,630.384 L417.707,867.440 C408.615,877.830 392.821,878.882 382.430,869.790 L16.688,549.746 C6.297,540.653 5.245,524.859 14.337,514.468 L221.773,277.413 C220.942,276.686 220.858,275.422 221.585,274.591 L239.366,254.272 C240.093,253.441 241.357,253.357 242.188,254.084 L242.188,254.084 L450.282,16.276 C459.375,5.885 475.169,4.833 485.560,13.925 L851.302,333.970 C861.693,343.062 862.745,358.857 853.653,369.247 Z" class="cls-2"/>
    <path d="M225.263,267.139 L214.068,279.932 L168.915,240.420 L180.110,227.626 L225.263,267.139 Z" class="cls-3"/>
    <path d="M223.946,268.644 L178.793,229.132 L179.451,228.379 L224.605,267.891 L223.946,268.644 ZM222.629,270.149 L177.476,230.637 L178.134,229.884 L223.288,269.396 L222.629,270.149 ZM221.312,271.654 L176.159,232.142 L176.817,231.390 L221.971,270.901 L221.312,271.654 ZM219.995,273.159 L174.842,233.647 L175.500,232.895 L220.654,272.406 L219.995,273.159 ZM218.678,274.664 L173.524,235.152 L174.183,234.400 L219.336,273.912 L218.678,274.664 ZM217.361,276.169 L172.207,236.657 L172.866,235.905 L218.019,275.417 L217.361,276.169 ZM216.044,277.674 L170.891,238.163 L171.549,237.410 L216.702,276.922 L216.044,277.674 ZM214.727,279.179 L169.573,239.668 L170.232,238.915 L215.385,278.427 L214.727,279.179 Z" class="cls-4"/>
    <g>
      <path d="M628.540,608.068 L411.884,855.659 C404.610,863.972 391.975,864.814 383.663,857.540 L18.673,538.154 C10.360,530.880 9.518,518.245 16.792,509.932 L233.448,262.341 C234.175,261.510 235.439,261.426 236.270,262.153 L628.352,605.246 C629.183,605.973 629.267,607.237 628.540,608.068 Z" class="cls-5"/>
      <path d="M628.540,608.068 L417.152,849.639 C409.879,857.951 397.243,858.793 388.931,851.520 L23.941,532.133 C15.629,524.860 14.786,512.224 22.060,503.912 L233.448,262.341 C234.175,261.510 235.439,261.426 236.270,262.153 L628.352,605.246 C629.183,605.973 629.267,607.237 628.540,608.068 Z" class="cls-6"/>
    </g>
    <g>
      <path d="M846.512,358.972 L629.857,606.563 C629.129,607.394 627.866,607.479 627.035,606.751 L234.953,263.658 C234.122,262.931 234.037,261.667 234.765,260.836 L451.420,13.245 C458.694,4.932 471.330,4.090 479.642,11.365 L844.632,330.750 C852.944,338.024 853.786,350.659 846.512,358.972 Z" class="cls-5"/>
      <path d="M841.244,364.992 L629.857,606.563 C629.129,607.394 627.866,607.479 627.035,606.751 L234.953,263.658 C234.122,262.931 234.037,261.667 234.765,260.836 L446.152,19.265 C453.426,10.953 466.061,10.111 474.374,17.384 L839.364,336.771 C847.676,344.045 848.518,356.680 841.244,364.992 Z" class="cls-7"/>
    </g>
    <g>
      <path d="M454.880,821.851 L443.290,835.096 C442.126,836.426 439.835,836.325 438.173,834.870 L34.802,481.899 C33.140,480.444 32.736,478.187 33.900,476.857 L45.490,463.612 C46.654,462.282 48.945,462.383 50.607,463.837 L453.977,816.809 C455.640,818.263 456.044,820.521 454.880,821.851 Z" class="cls-8"/>
      <path d="M454.312,822.359 L44.168,463.461 L45.486,461.956 L455.629,820.854 L454.312,822.359 ZM451.678,825.369 L41.534,466.472 L42.851,464.966 L452.995,823.864 L451.678,825.369 ZM449.044,828.379 L38.900,469.482 L40.217,467.977 L450.361,826.874 L449.044,828.379 ZM446.409,831.390 L36.266,472.492 L37.583,470.987 L447.726,829.884 L446.409,831.390 ZM443.775,834.400 L33.632,475.502 L34.949,473.997 L445.092,832.895 L443.775,834.400 ZM441.141,837.410 L30.998,478.513 L32.315,477.008 L442.458,835.905 L441.141,837.410 Z" class="cls-9"/>
    </g>
    <path d="M629.198,607.315 L628.540,608.068 L233.448,262.341 L234.106,261.588 L629.198,607.315 Z" class="cls-10"/>
  </g>
</svg>
